<?xml version="1.0" ?><svg id="Layer_1" style="enable-background:new 0 0 32 32;" version="1.1" viewBox="0 0 32 32" xml:space="preserve" xmlns="http://www.w3.org/2000/svg" xmlns:xlink="http://www.w3.org/1999/xlink"><g><g><g><path d="M27,31c-0.1552734,0-0.3110352-0.0361328-0.4536133-0.1088867L16,25.5219727L5.4536133,30.8911133     c-0.3095703,0.1582031-0.6801758,0.1435547-0.9760742-0.0385742C4.1806641,30.6708984,4,30.3476563,4,30V5.1972656     C4,2.8828125,5.8828125,1,8.1972656,1h15.6054688C26.1171875,1,28,2.8828125,28,5.1972656V30     c0,0.3476563-0.1806641,0.6708984-0.4775391,0.8525391C27.362793,30.9506836,27.1816406,31,27,31z M16,23.3999023     c0.1557617,0,0.3110352,0.0361328,0.4536133,0.1088867L26,28.3686523V5.1972656C26,3.9858398,25.0141602,3,23.8027344,3     H8.1972656C6.9858398,3,6,3.9858398,6,5.1972656v23.1713867l9.5463867-4.8598633     C15.6889648,23.4360352,15.8442383,23.3999023,16,23.3999023z"/></g></g></g></svg>